<svg width="59" height="40" viewBox="0 0 59 40" fill="none" xmlns="http://www.w3.org/2000/svg">
<path d="M1.65234 27.5078C1.80859 26.4531 2.21875 25.2812 2.88281 23.9922C3.58594 22.6641 4.73828 20.7695 6.33984 18.3086L19.4648 0.789062H30.5977L19.0547 19.3633C20.6562 20.2617 21.8672 21.668 22.6875 23.582C23.5078 25.457 23.7031 27.5664 23.2734 29.9102C22.7656 32.6836 21.3789 35.0078 19.1133 36.8828C16.8867 38.7188 14.3867 39.6367 11.6133 39.6367C8.17578 39.6367 5.48047 38.4648 3.52734 36.1211C1.61328 33.7383 0.988281 30.8672 1.65234 27.5078ZM29.4258 27.5078C29.6992 25.75 31.2422 22.6836 34.0547 18.3086L47.0625 0.789062H58.3125L46.6523 19.3633C48.293 20.2617 49.5234 21.668 50.3438 23.582C51.2031 25.457 51.418 27.5664 50.9883 29.9102C50.4023 32.7227 49.0156 35.0469 46.8281 36.8828C44.6406 38.7188 42.1602 39.6367 39.3867 39.6367C35.9492 39.6367 33.2539 38.4648 31.3008 36.1211C29.3867 33.7383 28.7617 30.8672 29.4258 27.5078Z" fill="#D91921"/>
</svg>
