<svg width="24" height="24" viewBox="0 0 24 24" fill="none" xmlns="http://www.w3.org/2000/svg">
<path d="M11.2321 7.29052V3.2815C11.2321 2.85523 11.5721 2.5 12.0021 2.5C12.3871 2.5 12.7132 2.79849 12.7649 3.17658L12.7721 3.2815V7.29052L17.552 7.29083C19.932 7.29083 21.8873 9.23978 21.9971 11.6704L22.002 11.8861V16.9254C22.002 19.373 20.1146 21.3822 17.77 21.495L17.562 21.5H6.44195C4.06195 21.5 2.11604 19.5608 2.00679 17.1213L2.00195 16.9047L2.00195 11.8758C2.00195 9.4281 3.87986 7.40921 6.22395 7.29585L6.43195 7.29083H11.232V13.6932L9.63195 12.041C9.33195 11.7312 8.84195 11.7312 8.54195 12.041C8.39195 12.1959 8.32195 12.4024 8.32195 12.6089C8.32195 12.7659 8.36675 12.9295 8.46147 13.0679L8.54195 13.1666L11.452 16.1819C11.592 16.3368 11.792 16.4194 12.002 16.4194C12.1686 16.4194 12.3353 16.362 12.4672 16.2533L12.542 16.1819L15.452 13.1666C15.752 12.8568 15.752 12.3508 15.452 12.041C15.1792 11.7594 14.7495 11.7338 14.4482 11.9642L14.362 12.041L12.772 13.6932V7.29083L11.2321 7.29052Z" fill="#D91921"/>
</svg>
