<svg width="35" height="35" viewBox="0 0 35 35" fill="none" xmlns="http://www.w3.org/2000/svg">
<path fill-rule="evenodd" clip-rule="evenodd" d="M11.0052 4.78032C11.2475 4.95526 11.6384 5.35711 11.6384 5.35711C13.1556 6.77918 15.441 10.3162 16.1748 12.1106C16.1902 12.1106 16.6254 13.1776 16.6425 13.6851V13.7527C16.6425 14.5304 16.2073 15.2579 15.5075 15.6303C15.219 15.7838 14.5174 15.9266 14.1789 15.9955C14.0668 16.0183 13.9945 16.033 13.9902 16.0373C12.9901 16.1898 11.4557 16.2902 9.77121 16.2902C8.00304 16.2902 6.40213 16.1898 5.41735 16.0027C5.40028 16.0027 4.50083 15.8174 4.20045 15.6978C3.76694 15.5125 3.4 15.173 3.16617 14.7504C2.99892 14.4126 2.91699 14.0558 2.91699 13.6851C2.93235 13.2954 3.18324 12.5679 3.2993 12.2804C4.03319 10.3837 6.43456 6.76186 7.90234 5.37443C8.05481 5.21969 8.22833 5.05758 8.34907 4.94479C8.41349 4.88461 8.46288 4.83846 8.48604 4.81496C8.85299 4.52743 9.30356 4.375 9.78827 4.375C10.2201 4.375 10.6536 4.51011 11.0052 4.78032ZM26.5837 14.8193C26.5837 15.5831 25.9744 16.2015 25.2218 16.2015C24.4691 16.2015 23.8598 15.5831 23.8598 14.8193L23.4843 8.14181C23.4843 7.16834 24.2626 6.38021 25.2218 6.38021C26.1809 6.38021 26.9575 7.16834 26.9575 8.14181L26.5837 14.8193ZM30.8002 19.3019C31.2337 19.489 31.6007 19.8268 31.8345 20.2494C32.0017 20.5872 32.0837 20.944 32.0837 21.3164C32.0683 21.7044 31.8174 22.4336 31.6996 22.7212C30.9675 24.6162 28.5644 28.2381 27.0983 29.6273C26.9485 29.7782 26.7784 29.9369 26.658 30.0493L26.6578 30.0495L26.6577 30.0496C26.5903 30.1125 26.5385 30.1608 26.5146 30.185C26.146 30.4726 25.6971 30.625 25.2141 30.625C24.7789 30.625 24.3454 30.4899 23.9955 30.2179C23.7531 30.0447 23.3623 29.6429 23.3623 29.6429C21.8433 28.2225 19.5597 24.6837 18.8258 22.8892C18.8087 22.8892 18.3752 21.8239 18.3582 21.3164V21.2488C18.3582 20.4694 18.7917 19.7419 19.4931 19.3695C19.781 19.2175 20.4804 19.0744 20.8197 19.0049L20.8197 19.0049L20.8197 19.0049C20.933 18.9817 21.0061 18.9667 21.0104 18.9624C22.0106 18.81 23.5449 18.7095 25.2294 18.7095C26.9976 18.7095 28.5985 18.81 29.5833 18.997C29.5987 18.997 30.4998 19.1824 30.8002 19.3019ZM9.77922 18.7987C9.02656 18.7987 8.41726 19.4171 8.41726 20.1809L8.04178 26.8582C8.04178 27.8317 8.82004 28.6198 9.77922 28.6198C10.7384 28.6198 11.515 27.8317 11.515 26.8582L11.1412 20.1809C11.1412 19.4171 10.5319 18.7987 9.77922 18.7987Z" fill="#D71A21"/>
</svg>
